# xmcd CD database file
#
# Track frame offsets:
#	150
#	19732
#	37452
#	48575
#	59332
#	74578
#	94290
#	105269
#	117913
#	133578
#	145631
#	160259
#	175339
#	190043
#	206050
#	217938
#	232534
#	247487
#
# Disc length: 3564 seconds
#
# Revision: 0
# Processed by: cddbd v1.5.2PL0 Copyright (c) Steve Scherf et al.
# Submitted via: CDex 1.51
#
DISCID=090dea12
DTITLE=Jack McLaughlin Bp Metal Clarinet John van Buuren Tenor Banjo Peter Boys String Bass - Waltzes
DYEAR=1995
DGENRE=Blues
TTITLE0=If Those Lips Could Only Speak
TTITLE1=It:'s A Sin To Tell A Lie
TTITLE2=Memories
TTITLE3=When They Sound The Last Clear
TTITLE4=Waltz You Saved For Me
TTITLE5=If I Had My Life To Live Over
TTITLE6=Shanty Old Sahnty Town
TTITLE7=Let Me Call You You Sweetheart
TTITLE8=My Bonnie Is Over The Ocean
TTITLE9=After The Ball Is Over
TTITLE10=Beautiful Dreamer
TTITLE11=Home On The Range
TTITLE12=Beautiful Ohio
TTITLE13=Just A Song At Twilight
TTITLE14=When Your Hair Has Turned To Silver
TTITLE15=I Wonder Who's Kissing Her Now
TTITLE16=When It's Spring Times In The Rockies
TTITLE17=I'll Be With You In Apple Blossom Time
EXTD=YEAR: 1995
EXTT0=
EXTT1=
EXTT2=
EXTT3=
EXTT4=
EXTT5=
EXTT6=
EXTT7=
EXTT8=
EXTT9=
EXTT10=
EXTT11=
EXTT12=
EXTT13=
EXTT14=
EXTT15=
EXTT16=
EXTT17=
PLAYORDER=
